#!OML:ASF E:\Mandelcareful walks\Project 1\Capture day 1\Session 1\Subject1.ASF
:FULLY-SPECIFIED
:DEGREES
581
root -8.59085 13.7741 1.19428 -249.895 83.0804 93.4298
lowerback 29.0314 3.17299 -6.87194
upperback 7.83198 2.45684 -6.89046
thorax -7.04832 1.65324 -4.68115
lowerneck -6.14078 24.1232 19.6181
upperneck 8.80096 35.1167 -25.3575
head 12.1096 16.026 -5.03071
rclavicle 2.78299e-015 4.45278e-014
rhumerus 38.5732 -23.1444 -23.9515
rradius 132.713
rwrist -54.0019
rhand -24.0373 -16.737
rfingers 7.12502
rthumb 2.44138 -46.7027
lclavicle 2.78299e-015 4.45278e-014
lhumerus -13.4173 -52.8427 66.752
lradius 82.113
lwrist -0.424479
lhand -18.7418 -21.6395
lfingers 7.12502
lthumb 7.55437 8.2056
rfemur -53.4284 -25.7322 -0.192771
rtibia 75.7445
rfoot -26.6826 -5.3457
rtoes -19.1549
lfemur -62.4622 14.2612 -18.5456
ltibia 75.2444
lfoot -22.4694 0.397599
ltoes -14.6539
582
root -8.59499 13.7779 1.17505 -246.342 82.9351 96.6266
lowerback 28.692 3.08305 -6.81738
upperback 7.74797 2.3794 -6.78206
thorax -6.98906 1.60741 -4.54078
lowerneck -7.36934 23.9666 18.963
upperneck 9.71928 34.6131 -23.8862
head 12.0574 15.7045 -4.56766
rclavicle -1.23246e-014 1.03368e-014
rhumerus 36.3265 -21.4711 -23.4447
rradius 133.347
rwrist -51.9837
rhand -26.4791 -16.8723
rfingers 7.12502
rthumb 0.0830546 -46.852
lclavicle -1.23246e-014 1.03368e-014
lhumerus -12.5791 -52.7912 67.0604
lradius 81.0275
lwrist -0.291679
lhand -19.0311 -21.5905
lfingers 7.12502
lthumb 7.27514 8.26447
rfemur -53.5439 -26.2278 -0.205221
rtibia 75.4421
rfoot -26.4757 -5.42463
rtoes -19.2386
lfemur -62.9473 13.7613 -18.719
ltibia 75.1468
lfoot -22.3748 0.458176
ltoes -14.0734
583
root -8.58256 13.7903 1.1522 -245.463 82.9768 97.2141
lowerback 28.3866 3.21284 -6.64679
upperback 7.56758 2.58347 -6.78175
thorax -7.03749 1.69299 -4.6955
lowerneck -7.0478 23.8752 19.2985
upperneck 9.44594 34.5055 -24.1934
head 12.016 15.6961 -4.75661
rclavicle -1.98785e-015 -4.85035e-014
rhumerus 33.0787 -19.3523 -22.6692
rradius 134.127
rwrist -49.0516
rhand -29.0247 -16.913
rfingers 7.12502
rthumb -2.37558 -46.8795
lclavicle -1.98785e-015 -4.85035e-014
lhumerus -11.7921 -53.0107 67.5235
lradius 79.7865
lwrist -0.234222
lhand -19.0283 -21.7471
lfingers 7.12502
lthumb 7.27779 8.1077
rfemur -53.6461 -26.3377 -0.11419
rtibia 75.1135
rfoot -26.2334 -5.53702
rtoes -19.2771
lfemur -63.1851 13.6114 -18.7887
ltibia 75.045
lfoot -22.4356 0.540656
ltoes -13.9319
584
root -8.51536 13.8507 1.11968 -252.264 83.3971 91.3529
lowerback 29.0631 3.66048 -6.90373
upperback 7.70111 3.04454 -6.61774
thorax -7.21223 1.91891 -4.56739
lowerneck -7.41394 24.0848 18.8865
upperneck 9.42784 34.7518 -24.0306
head 12.0061 15.7785 -4.55418
rclavicle -2.78299e-014 -1.11319e-014
rhumerus 30.3229 -16.4389 -22.1575
rradius 134.712
rwrist -45.145
rhand -31.2647 -17.3628
rfingers 7.12502
rthumb -4.53878 -47.2941
lclavicle -2.78299e-014 -1.11319e-014
lhumerus -11.5688 -52.2693 68.6203
lradius 78.5439
lwrist -0.702595
lhand -18.8769 -21.9712
lfingers 7.12502
lthumb 7.42399 7.8785
rfemur -52.0197 -25.2633 -0.37393
rtibia 74.3648
rfoot -26.3626 -5.50277
rtoes -19.099
lfemur -61.2885 14.2305 -18.3892
ltibia 74.728
lfoot -22.9655 0.662923
ltoes -13.9853
585
root -8.52436 13.8585 1.10885 -246.235 83.2571 96.8835
lowerback 28.8326 3.57899 -6.88151
upperback 7.35283 2.90944 -6.48611
thorax -7.51224 1.83794 -4.38702
lowerneck -7.38586 24.0649 19.0591
upperneck 9.58901 34.7017 -23.8271
head 12.031 15.7639 -4.52591
rclavicle 8.15017e-015 1.27222e-014
rhumerus 27.0757 -12.5834 -21.7873
rradius 135.239
rwrist -40.8825
rhand -33.4149 -18.0241
rfingers 7.12502
rthumb -6.61476 -47.9008
lclavicle 8.15017e-015 1.27222e-014
lhumerus -11.8804 -51.9154 70.014
lradius 77.5108
lwrist -1.15961
lhand -18.4932 -21.6407
lfingers 7.12502
lthumb 7.79433 8.19567
rfemur -52.2202 -25.8434 -0.24735
rtibia 74.0636
rfoot -26.3826 -5.6677
rtoes -19.3774
lfemur -61.9993 13.5931 -18.5372
ltibia 74.5589
lfoot -22.6967 0.998007
ltoes -13.8478
586
root -8.48464 13.9022 1.08333 -246.414 83.3948 96.8339
lowerback 28.7128 3.78321 -6.98421
upperback 7.30924 3.15045 -6.31705
thorax -7.51305 1.94639 -4.21348
lowerneck -7.60017 24.0756 18.9232
upperneck 9.58217 34.6736 -23.7192
head 12.0069 15.7413 -4.46797
rclavicle 2.36554e-014 -7.33515e-014
rhumerus 23.9629 -8.17051 -21.7023
rradius 135.625
rwrist -36.4024
rhand -35.4215 -17.9546
rfingers 7.12502
rthumb -8.55156 -47.7615
lclavicle 2.36554e-014 -7.33515e-014
lhumerus -11.9643 -51.4896 71.2234
lradius 76.7379
lwrist -1.51493
lhand -17.7119 -20.9886
lfingers 7.12502
lthumb 8.54836 8.81831
rfemur -51.5206 -25.6898 -0.248967
rtibia 73.4612
rfoot -26.4486 -5.8556
rtoes -20.5491
lfemur -61.4944 13.5596 -18.4897
ltibia 74.2397
lfoot -22.7654 1.30691
ltoes -14.5918
587
root -8.4907 13.9227 1.07347 -238.467 83.1757 104.454
lowerback 28.6281 3.53954 -6.7373
upperback 7.12789 2.8946 -6.132
thorax -7.68834 1.81292 -4.05812
lowerneck -7.5822 24.1237 18.8527
upperneck 9.20136 34.7321 -23.9984
head 11.9302 15.7828 -4.52888
rclavicle 5.84427e-014 -2.68359e-014
rhumerus 20.7802 -3.24182 -22.046
rradius 135.782
rwrist -31.7733
rhand -36.9746 -17.0563
rfingers 7.12502
rthumb -10.0502 -46.7963
lclavicle 5.84427e-014 -2.68359e-014
lhumerus -12.4821 -51.0032 72.5572
lradius 76.3636
lwrist -2.20609
lhand -16.7697 -20.1701
lfingers 7.12502
lthumb 9.45758 9.59767
rfemur -51.3109 -26.3772 -0.113197
rtibia 73.0354
rfoot -26.1943 -6.19919
rtoes -20.928
lfemur -62.0321 12.6891 -18.5292
ltibia 73.939
lfoot -22.2255 1.40507
ltoes -15.7564
588
root -8.47202 13.9529 1.06108 -234.97 83.1175 107.866
lowerback 28.3719 3.51608 -6.62105
upperback 7.16521 2.93465 -6.04395
thorax -7.52219 1.82862 -4.01518
lowerneck -7.83103 24.2008 18.8276
upperneck 8.76792 34.7898 -24.3522
head 11.9076 15.8015 -4.58314
rclavicle 7.95139e-015 -2.06736e-014
rhumerus 17.4315 1.7345 -22.9186
rradius 135.977
rwrist -27.5419
rhand -37.2925 -15.459
rfingers 7.12502
rthumb -10.3568 -45.184
lclavicle 7.95139e-015 -2.06736e-014
lhumerus -12.1721 -50.7451 73.2315
lradius 75.7879
lwrist -3.00941
lhand -15.8378 -19.3312
lfingers 7.12502
lthumb 10.3566 10.3938
rfemur -50.8216 -26.4725 -0.0716293
rtibia 72.4632
rfoot -26.0369 -6.47347
rtoes -20.9478
lfemur -61.937 12.2957 -18.4449
ltibia 73.5783
lfoot -22.144 1.30528
ltoes -15.4604
589
root -8.38347 14.0296 1.03276 -242.822 83.6649 100.986
lowerback 28.1815 3.85892 -7.28269
upperback 8.0739 3.39338 -5.73701
thorax -6.43229 2.06937 -3.37748
lowerneck -9.95254 24.8102 16.888
upperneck 8.42219 35.4787 -24.1798
head 11.8752 15.9417 -3.92681
rclavicle 9.34288e-015 -1.82882e-014
rhumerus 15.6879 6.20727 -23.8519
rradius 135.805
rwrist -24.2975
rhand -35.2537 -13.6595
rfingers 7.12502
rthumb -8.38958 -43.4729
lclavicle 9.34288e-015 -1.82882e-014
lhumerus -9.92685 -49.4376 72.8419
lradius 74.8141
lwrist -3.72834
lhand -14.8536 -18.3933
lfingers 7.12502
lthumb 11.3059 11.282
rfemur -49.0409 -25.1078 -0.395395
rtibia 71.5854
rfoot -26.1845 -6.78599
rtoes -21.2807
lfemur -59.768 13.1207 -18.1232
ltibia 73.068
lfoot -22.8036 1.2322
ltoes -14.6358
590
root -8.36221 14.0574 1.02061 -240.004 83.5479 103.607
lowerback 28.0722 4.16067 -6.83956
upperback 7.51878 3.79461 -5.98932
thorax -6.96886 2.24786 -4.07597
lowerneck -8.3459 24.286 18.8199
upperneck 8.18776 34.7345 -24.5818
head 11.8234 15.7705 -4.60844
rclavicle 1.25234e-014 4.39314e-014
rhumerus 10.5106 11.5725 -25.8404
rradius 135.688
rwrist -21.8226
rhand -31.2389 -13.7655
rfingers 7.12502
rthumb -4.51383 -43.6974
lclavicle 1.25234e-014 4.39314e-014
lhumerus -10.247 -51.22 73.6126
lradius 74.4832
lwrist -4.22192
lhand -13.6344 -17.1504
lfingers 7.12502
lthumb 12.4816 12.4568
rfemur -48.7612 -25.2075 -0.423121
rtibia 71.0649
rfoot -25.8914 -7.22911
rtoes -21.3121
lfemur -59.7035 12.7853 -18.1856
ltibia 72.6781
lfoot -22.5568 1.12416
ltoes -13.6521
591
root -8.3516 14.08 1.00651 -234.588 83.2907 108.734
lowerback 27.9436 4.04899 -6.66305
upperback 7.29559 3.67844 -5.83823
thorax -7.16675 2.17952 -3.96959
lowerneck -8.33851 24.3627 18.8504
upperneck 8.24206 34.8923 -24.6588
head 11.9005 15.8351 -4.58091
rclavicle 5.18828e-014 -6.29153e-014
rhumerus 7.29191 16.3953 -27.4889
rradius 135.261
rwrist -19.8035
rhand -22.6585 -12.6513
rfingers 7.12502
rthumb 3.77286 -42.5976
lclavicle 5.18828e-014 -6.29153e-014
lhumerus -10.5649 -51.3657 74.7637
lradius 74.3313
lwrist -4.84732
lhand -12.3887 -15.7999
lfingers 7.12502
lthumb 13.6824 13.7303
rfemur -48.5602 -25.7119 -0.396205
rtibia 70.58
rfoot -25.585 -7.49357
rtoes -21.386
lfemur -59.8882 12.1222 -18.2457
ltibia 72.3023
lfoot -22.3087 0.971428
ltoes -12.9322
592
root -8.31709 14.1237 0.987867 -234.188 83.3488 109.347
lowerback 27.9656 4.22074 -6.67752
upperback 7.28556 3.89702 -5.64445
thorax -7.20069 2.27864 -3.81958
lowerneck -8.2203 24.4038 18.8589
upperneck 8.1924 34.9964 -24.782
head 11.9168 15.892 -4.59588
rclavicle 2.78299e-014 -6.06293e-015
rhumerus 4.23724 20.4103 -29.294
rradius 134.762
rwrist -17.9421
rhand -13.8181 -14.5012
rfingers 7.12502
rthumb 12.3045 -44.1192
lclavicle 2.78299e-014 -6.06293e-015
lhumerus -10.9069 -51.6417 75.816
lradius 74.3037
lwrist -5.3521
lhand -11.3973 -14.5965
lfingers 7.12502
lthumb 14.6378 14.8669
rfemur -47.78 -25.5006 -0.495052
rtibia 70.028
rfoot -25.646 -7.69519
rtoes -21.5056
lfemur -59.2934 12.0893 -18.2198
ltibia 71.936
lfoot -22.3962 1.06289
ltoes -13.5976
593
root -8.28611 14.1588 0.96693 -233.632 83.3537 110.076
lowerback 27.9715 4.32958 -6.5672
upperback 7.24901 4.0625 -5.54782
thorax -7.24465 2.35277 -3.83222
lowerneck -7.94678 24.3312 19.0424
upperneck 7.99971 34.8883 -24.8951
head 11.8383 15.8824 -4.71016
rclavicle -7.90666e-014 3.85145e-014
rhumerus 1.26266 23.3435 -31.4763
rradius 133.99
rwrist -15.5954
rhand -1.36184 -14.765
rfingers 7.12502
rthumb 24.2853 -43.2468
lclavicle -7.90666e-014 3.85145e-014
lhumerus -11.2941 -52.2973 76.5806
lradius 74.2688
lwrist -5.68768
lhand -10.6825 -13.6406
lfingers 7.12502
lthumb 15.3263 15.7714
rfemur -47.0483 -25.3516 -0.664015
rtibia 69.5457
rfoot -25.6756 -7.78456
rtoes -21.19
lfemur -58.8202 11.9972 -18.2551
ltibia 71.6351
lfoot -22.4926 1.23695
ltoes -14.19
